<svg width="16" height="20" viewBox="0 0 16 20" fill="none" xmlns="http://www.w3.org/2000/svg">
<path fill-rule="evenodd" clip-rule="evenodd" d="M8.99998 14.753V12H4.81798C4.3737 11.999 3.93395 12.0892 3.5259 12.2649C3.11784 12.4406 2.75016 12.6981 2.44558 13.0215C2.14099 13.345 1.90597 13.7274 1.75505 14.1453C1.60412 14.5631 1.5405 15.0075 1.56811 15.4509C1.59572 15.8943 1.71398 16.3274 1.91557 16.7233C2.11717 17.1192 2.39782 17.4695 2.74017 17.7527C3.08253 18.0358 3.47932 18.2457 3.90602 18.3695C4.33272 18.4932 4.78026 18.5281 5.22098 18.472L5.77798 18.402C6.66728 18.2909 7.48541 17.8589 8.07869 17.1872C8.67197 16.5155 8.99958 15.6492 8.99998 14.753Z" fill="white"/>
<path d="M8.99998 6V5.389C8.99998 3.77 8.99998 2.961 9.47398 2.402C9.94798 1.842 10.746 1.709 12.342 1.442L14.7 1.05C14.836 1.028 14.904 1.016 14.94 1.056C14.977 1.096 14.96 1.162 14.927 1.296L14.032 4.877C14.017 4.937 14.009 4.967 13.988 4.987C13.968 5.007 13.938 5.013 13.877 5.025L8.99998 6ZM8.99998 6V12M8.99998 12V14.753C9.00007 15.6496 8.67268 16.5153 8.07935 17.1874C7.48602 17.8596 6.66762 18.2918 5.77798 18.403L5.22098 18.473C4.78078 18.5279 4.334 18.4921 3.90817 18.3678C3.48234 18.2435 3.08648 18.0333 2.74498 17.7501C2.40348 17.467 2.12358 17.1169 1.92254 16.7215C1.72149 16.3261 1.60355 15.8936 1.57598 15.4509C1.54842 15.0081 1.61181 14.5644 1.76226 14.1471C1.91271 13.7298 2.14702 13.3477 2.45076 13.0244C2.7545 12.7011 3.12123 12.4434 3.52836 12.2672C3.93548 12.091 4.37437 12.0001 4.81798 12H8.99998Z" stroke="white" stroke-width="2"/>
</svg>
