<svg width="106" height="110" viewBox="0 0 106 110" fill="none" xmlns="http://www.w3.org/2000/svg">
<path d="M48.9375 8.125V4.0625C48.9375 2.98506 49.3655 1.95175 50.1274 1.18988C50.8892 0.428012 51.9226 0 53 0C54.0774 0 55.1108 0.428012 55.8726 1.18988C56.6345 1.95175 57.0625 2.98506 57.0625 4.0625V8.125C57.0625 9.20244 56.6345 10.2358 55.8726 10.9976C55.1108 11.7595 54.0774 12.1875 53 12.1875C51.9226 12.1875 50.8892 11.7595 50.1274 10.9976C49.3655 10.2358 48.9375 9.20244 48.9375 8.125ZM89.5625 24.375C90.0962 24.3754 90.6247 24.2707 91.1178 24.0668C91.611 23.8629 92.0592 23.5639 92.4367 23.1867L96.4992 19.1242C97.2615 18.3619 97.6898 17.328 97.6898 16.25C97.6898 15.172 97.2615 14.1381 96.4992 13.3758C95.7369 12.6135 94.703 12.1852 93.625 12.1852C92.547 12.1852 91.5131 12.6135 90.7508 13.3758L86.6883 17.4383C86.1195 18.0064 85.7321 18.7306 85.575 19.5191C85.418 20.3075 85.4985 21.1249 85.8062 21.8676C86.114 22.6103 86.6352 23.245 87.3038 23.6914C87.9725 24.1377 88.7585 24.3756 89.5625 24.375ZM13.5633 23.1867C14.3256 23.949 15.3595 24.3773 16.4375 24.3773C17.5155 24.3773 18.5494 23.949 19.3117 23.1867C20.074 22.4244 20.5023 21.3905 20.5023 20.3125C20.5023 19.2345 20.074 18.2006 19.3117 17.4383L15.2492 13.3758C14.4869 12.6135 13.453 12.1852 12.375 12.1852C11.297 12.1852 10.2631 12.6135 9.50078 13.3758C8.73849 14.1381 8.31024 15.172 8.31024 16.25C8.31024 17.328 8.73849 18.3619 9.50078 19.1242L13.5633 23.1867ZM105.812 89.375V101.562C105.812 103.717 104.956 105.784 103.433 107.308C101.909 108.831 99.8424 109.688 97.6875 109.688H8.3125C6.15762 109.688 4.09099 108.831 2.56726 107.308C1.04352 105.784 0.1875 103.717 0.1875 101.562V89.375C0.1875 87.2201 1.04352 85.1535 2.56726 83.6298C4.09099 82.106 6.15762 81.25 8.3125 81.25V65C8.31233 59.1028 9.47938 53.2639 11.7464 47.8199C14.0134 42.3758 17.3355 37.4344 21.5212 33.2803C25.707 29.1262 30.6735 25.8416 36.1346 23.616C41.5956 21.3903 47.4432 20.2676 53.3402 20.3125C77.7914 20.4953 97.6875 40.7723 97.6875 65.5078V81.25C99.8424 81.25 101.909 82.106 103.433 83.6298C104.956 85.1535 105.812 87.2201 105.812 89.375ZM56.3922 44.6316C66.0355 46.2516 73.3125 55.0062 73.3125 65C73.3125 66.0774 73.7405 67.1108 74.5024 67.8726C75.2642 68.6345 76.2976 69.0625 77.375 69.0625C78.4524 69.0625 79.4858 68.6345 80.2476 67.8726C81.0095 67.1108 81.4375 66.0774 81.4375 65C81.4375 51.0859 71.2457 38.8832 57.7328 36.6184C57.2044 36.5249 56.6626 36.5371 56.1389 36.6542C55.6151 36.7713 55.1198 36.991 54.6815 37.3006C54.2431 37.6103 53.8705 38.0037 53.5851 38.4581C53.2996 38.9126 53.1071 39.4191 53.0185 39.9484C52.93 40.4778 52.9472 41.0194 53.0691 41.542C53.1911 42.0646 53.4154 42.5579 53.7291 42.9933C54.0428 43.4288 54.4396 43.7978 54.8967 44.079C55.3538 44.3602 55.8621 44.548 56.3922 44.6316ZM97.6875 101.562V89.375H8.3125V101.562H97.6875Z" fill="white"/>
</svg>
